<svg width="17" height="16" viewBox="0 0 17 16" fill="none" xmlns="http://www.w3.org/2000/svg">
<path d="M13.5564 14.4746C13.1812 14.4746 12.994 14.1746 13.0555 13.9036C13.4653 12.0968 11.4074 10.6849 9.74897 11.6577C9.38748 11.8697 9.09012 12.1799 8.90416 12.5577C8.73121 12.9103 8.21923 12.9097 8.04657 12.5577C7.86013 12.1789 7.56251 11.8693 7.20169 11.6577C5.57149 10.7007 3.47863 12.067 3.89523 13.9036C3.96145 14.1952 3.73651 14.4746 3.43022 14.4746C2.91259 14.4746 2.59424 14.8446 2.59424 15.2377C2.59424 15.6564 2.95147 16.0005 3.39433 16.0005H13.5564C13.9994 16.0005 14.3565 15.6563 14.3565 15.2377C14.3565 14.8174 13.9977 14.4746 13.5564 14.4746Z" fill="white"/>
<path d="M16.5834 1.87508L15.4685 0.074953C15.4067 -0.0249844 15.2592 -0.0249844 15.1973 0.074953L14.0824 1.87508C14.0672 1.89958 14.0592 1.9277 14.0592 1.95639V5.97876H9.74908V1.95639C9.74908 1.9277 9.74105 1.89958 9.7259 1.87508L8.61104 0.074953C8.54916 -0.0249844 8.40169 -0.0249844 8.33979 0.074953L7.22493 1.87508C7.20974 1.89958 7.20174 1.9277 7.20174 1.95639V5.97876H2.89158V1.95639C2.89158 1.9277 2.88355 1.89958 2.8684 1.87508L1.75354 0.074953C1.69166 -0.0249844 1.54419 -0.0249844 1.48228 0.074953L0.367425 1.87508C0.352274 1.89958 0.344238 1.9277 0.344238 1.95639V15.8438C0.344238 15.93 0.415354 16 0.50305 16H1.82818C1.70875 15.7703 1.64141 15.5113 1.64141 15.2372C1.64141 14.4691 2.16931 13.8181 2.89158 13.6081V8.28063H7.20174V10.6194C7.69406 10.8063 8.13396 11.1106 8.47541 11.5041C8.81686 11.1106 9.25677 10.8063 9.74908 10.6194V8.28063H14.0592V13.6081C14.7815 13.8181 15.3094 14.4691 15.3094 15.2372C15.3094 15.5113 15.2421 15.7703 15.1226 16H16.4478C16.5355 16 16.6066 15.93 16.6066 15.8438V1.95639C16.6066 1.9277 16.5985 1.89958 16.5834 1.87508Z" fill="white"/>
</svg>
