<svg width="17" height="15" viewBox="0 0 17 15" fill="none" xmlns="http://www.w3.org/2000/svg">
<path d="M16.4798 0.375C16.4798 0.275544 16.4396 0.180161 16.3681 0.109835C16.2967 0.0395088 16.1997 0 16.0986 0C16.1997 0 16.2967 0.0395088 16.3681 0.109835C16.4396 0.180161 16.4798 0.275544 16.4798 0.375Z" fill="white"/>
<path d="M0.852827 0C0.751741 0 0.654794 0.0395088 0.583315 0.109835C0.511836 0.180161 0.47168 0.275544 0.47168 0.375C0.47168 0.275544 0.511836 0.180161 0.583315 0.109835C0.654794 0.0395088 0.751741 0 0.852827 0Z" fill="white"/>
<path d="M16.0988 0H0.852828C0.751741 0 0.654795 0.0395088 0.583316 0.109835C0.511836 0.180161 0.47168 0.275544 0.47168 0.375V3.375H16.4799V0.375C16.4799 0.275544 16.4398 0.180161 16.3683 0.109835C16.2968 0.0395088 16.1999 0 16.0988 0ZM2.37742 2.125C2.30204 2.125 2.22835 2.10301 2.16567 2.0618C2.10299 2.0206 2.05414 1.96203 2.02529 1.89351C1.99644 1.82498 1.98889 1.74958 2.0036 1.67684C2.0183 1.6041 2.05461 1.53728 2.10791 1.48483C2.16121 1.43239 2.22913 1.39667 2.30306 1.38221C2.377 1.36774 2.45364 1.37516 2.52328 1.40355C2.59293 1.43193 2.65245 1.47999 2.69434 1.54166C2.73622 1.60333 2.75857 1.67583 2.75857 1.75C2.75857 1.84946 2.71841 1.94484 2.64694 2.01517C2.57546 2.08549 2.47851 2.125 2.37742 2.125ZM3.90202 2.125C3.82663 2.125 3.75294 2.10301 3.69026 2.0618C3.62758 2.0206 3.57873 1.96203 3.54988 1.89351C3.52103 1.82498 3.51349 1.74958 3.52819 1.67684C3.5429 1.6041 3.5792 1.53728 3.6325 1.48483C3.68581 1.43239 3.75372 1.39667 3.82766 1.38221C3.90159 1.36774 3.97823 1.37516 4.04788 1.40355C4.11752 1.43193 4.17705 1.47999 4.21893 1.54166C4.26081 1.60333 4.28317 1.67583 4.28317 1.75C4.28317 1.84946 4.24301 1.94484 4.17153 2.01517C4.10005 2.08549 4.0031 2.125 3.90202 2.125ZM5.42661 2.125C5.35123 2.125 5.27754 2.10301 5.21486 2.0618C5.15218 2.0206 5.10332 1.96203 5.07448 1.89351C5.04563 1.82498 5.03808 1.74958 5.05279 1.67684C5.06749 1.6041 5.10379 1.53728 5.1571 1.48483C5.2104 1.43239 5.27832 1.39667 5.35225 1.38221C5.42619 1.36774 5.50282 1.37516 5.57247 1.40355C5.64212 1.43193 5.70164 1.47999 5.74352 1.54166C5.78541 1.60333 5.80776 1.67583 5.80776 1.75C5.80776 1.84946 5.7676 1.94484 5.69612 2.01517C5.62464 2.08549 5.5277 2.125 5.42661 2.125Z" fill="white"/>
<path d="M0.47168 3.75V14.375C0.47168 14.4745 0.511836 14.5698 0.583316 14.6402C0.654795 14.7105 0.751741 14.75 0.852828 14.75H16.0988C16.1999 14.75 16.2968 14.7105 16.3683 14.6402C16.4398 14.5698 16.4799 14.4745 16.4799 14.375V3.75H0.47168ZM8.79292 8.333C8.76516 8.37399 8.72948 8.40919 8.68789 8.4366C8.64631 8.46401 8.59964 8.48309 8.55056 8.49275C8.50147 8.50241 8.45094 8.50246 8.40183 8.49289C8.35273 8.48332 8.30603 8.46433 8.26439 8.437L7.84055 8.15903V11.125C7.84055 11.2245 7.8004 11.3198 7.72892 11.3902C7.65744 11.4605 7.56049 11.5 7.4594 11.5H3.39382C3.29273 11.5 3.19579 11.4605 3.12431 11.3902C3.05283 11.3198 3.01267 11.2245 3.01267 11.125V8.15903L2.58883 8.437C2.50472 8.49087 2.40241 8.50992 2.30411 8.49002C2.2058 8.47012 2.11944 8.41288 2.06377 8.33073C2.0081 8.24857 1.98762 8.14812 2.00676 8.05119C2.0259 7.95426 2.08312 7.86867 2.16601 7.813L5.2152 5.813C5.27781 5.77194 5.35137 5.75003 5.42661 5.75003C5.50185 5.75003 5.57541 5.77194 5.63802 5.813L8.68721 7.813C8.77131 7.86817 8.82969 7.95395 8.84951 8.05146C8.86934 8.14898 8.84898 8.25025 8.79292 8.333ZM14.5742 12.25H12.6684V12.625C12.6684 12.7245 12.6283 12.8198 12.5568 12.8902C12.4853 12.9605 12.3884 13 12.2873 13C12.1862 13 12.0893 12.9605 12.0178 12.8902C11.9463 12.8198 11.9061 12.7245 11.9061 12.625V12.25H10.5086C10.4075 12.25 10.3106 12.2105 10.2391 12.1402C10.1676 12.0698 10.1274 11.9745 10.1274 11.875C10.1274 11.7755 10.1676 11.6802 10.2391 11.6098C10.3106 11.5395 10.4075 11.5 10.5086 11.5H11.9061V11.125C11.9061 11.0255 11.9463 10.9302 12.0178 10.8598C12.0893 10.7895 12.1862 10.75 12.2873 10.75C12.3884 10.75 12.4853 10.7895 12.5568 10.8598C12.6283 10.9302 12.6684 11.0255 12.6684 11.125V11.5H14.5742C14.6753 11.5 14.7722 11.5395 14.8437 11.6098C14.9152 11.6802 14.9553 11.7755 14.9553 11.875C14.9553 11.9745 14.9152 12.0698 14.8437 12.1402C14.7722 12.2105 14.6753 12.25 14.5742 12.25ZM14.5742 9.25H13.9389V9.625C13.9389 9.72446 13.8988 9.81984 13.8273 9.89017C13.7558 9.96049 13.6589 10 13.5578 10C13.4567 10 13.3597 9.96049 13.2883 9.89017C13.2168 9.81984 13.1766 9.72446 13.1766 9.625V9.25H10.5086C10.4075 9.25 10.3106 9.21049 10.2391 9.14017C10.1676 9.06984 10.1274 8.97446 10.1274 8.875C10.1274 8.77554 10.1676 8.68016 10.2391 8.60983C10.3106 8.53951 10.4075 8.5 10.5086 8.5H13.1766V8.125C13.1766 8.02554 13.2168 7.93016 13.2883 7.85983C13.3597 7.78951 13.4567 7.75 13.5578 7.75C13.6589 7.75 13.7558 7.78951 13.8273 7.85983C13.8988 7.93016 13.9389 8.02554 13.9389 8.125V8.5H14.5742C14.6753 8.5 14.7722 8.53951 14.8437 8.60983C14.9152 8.68016 14.9553 8.77554 14.9553 8.875C14.9553 8.97446 14.9152 9.06984 14.8437 9.14017C14.7722 9.21049 14.6753 9.25 14.5742 9.25ZM14.5742 6.25H11.9061V6.625C11.9061 6.72446 11.866 6.81984 11.7945 6.89016C11.723 6.96049 11.6261 7 11.525 7C11.4239 7 11.327 6.96049 11.2555 6.89016C11.184 6.81984 11.1438 6.72446 11.1438 6.625V6.25H10.5086C10.4075 6.25 10.3106 6.21049 10.2391 6.14016C10.1676 6.06984 10.1274 5.97446 10.1274 5.875C10.1274 5.77554 10.1676 5.68016 10.2391 5.60984C10.3106 5.53951 10.4075 5.5 10.5086 5.5H11.1438V5.125C11.1438 5.02554 11.184 4.93016 11.2555 4.85984C11.327 4.78951 11.4239 4.75 11.525 4.75C11.6261 4.75 11.723 4.78951 11.7945 4.85984C11.866 4.93016 11.9061 5.02554 11.9061 5.125V5.5H14.5742C14.6753 5.5 14.7722 5.53951 14.8437 5.60984C14.9152 5.68016 14.9553 5.77554 14.9553 5.875C14.9553 5.97446 14.9152 6.06984 14.8437 6.14016C14.7722 6.21049 14.6753 6.25 14.5742 6.25Z" fill="white"/>
</svg>
