<svg width="17" height="16" viewBox="0 0 17 16" fill="none" xmlns="http://www.w3.org/2000/svg">
<path d="M8.4593 0C3.9755 0 0.328125 3.58853 0.328125 8C0.328125 12.4115 3.9755 16 8.4593 16C12.9431 16 16.5905 12.4115 16.5905 8C16.5905 3.58853 12.9431 0 8.4593 0ZM8.12049 13.3333C7.56001 13.3333 7.10409 12.8848 7.10409 12.3333C7.10409 11.7819 7.56001 11.3333 8.12049 11.3333C8.68097 11.3333 9.13688 11.7819 9.13688 12.3333C9.13688 12.8848 8.68097 13.3333 8.12049 13.3333ZM9.13688 9.26694V10.3333C9.13688 10.5176 8.98535 10.6667 8.79807 10.6667H7.4429C7.25563 10.6667 7.10409 10.5176 7.10409 10.3333V8.66669C7.10409 7.93166 7.71221 7.33334 8.4593 7.33334C9.20638 7.33334 9.8145 6.73503 9.8145 6C9.8145 5.26497 9.20638 4.66666 8.4593 4.66666C7.71221 4.66666 7.10409 5.26497 7.10409 6V6.33334C7.10409 6.51759 6.95255 6.66669 6.76528 6.66669H5.41011C5.22284 6.66669 5.0713 6.51759 5.0713 6.33334V6C5.0713 4.16209 6.59126 2.66666 8.4593 2.66666C10.3273 2.66666 11.8473 4.16213 11.8473 6C11.8473 7.59963 10.7018 8.95509 9.13688 9.26694Z" fill="white"/>
</svg>
