<svg width="15" height="16" viewBox="0 0 15 16" fill="none" xmlns="http://www.w3.org/2000/svg">
<path d="M14.1272 9.65612L9.33971 4.94591C9.8144 2.88734 8.21504 0.907469 6.02706 0.943656C5.48014 0.340687 4.70689 0 3.88415 0C2.33379 0 1.04662 1.23375 1.01009 2.76022C0.972074 4.34909 2.26658 5.65625 3.88376 5.65625C4.14688 5.65625 4.3602 5.44637 4.3602 5.1875C4.3602 4.92862 4.14688 4.71875 3.88376 4.71875C2.80581 4.71875 1.93717 3.84837 1.96271 2.78228C1.99692 1.35191 3.58367 0.487812 4.82936 1.18141C4.42677 1.34159 4.06014 1.57828 3.74525 1.88397C7.1639 1.67087 9.42735 5.29653 7.7435 8.19091C7.90717 8.2615 7.98279 8.21769 8.79092 8.21837L8.79953 9.08619C8.80204 9.34128 9.01142 9.54753 9.27066 9.55034L10.1484 9.55987L10.1248 10.3719C10.121 10.5008 10.1714 10.6256 10.2641 10.7168L10.9828 11.4239C11.0722 11.5118 11.1933 11.5612 11.3197 11.5612H12.6672C12.7936 11.5612 12.9148 11.5118 13.0041 11.4239L14.1271 10.3191C14.3132 10.136 14.3132 9.83919 14.1272 9.65612Z" fill="white"/>
<path d="M2.9286 2.99172C3.0008 3.41629 3.38153 3.78126 3.8837 3.78126C4.67182 3.78126 5.313 4.4121 5.313 5.18751C5.313 5.96292 4.67182 6.59376 3.8837 6.59376C2.64147 6.59376 1.54567 6.01995 0.837588 5.10898C0.382433 6.53964 0.967432 8.11842 2.30542 8.90808V9.88377C2.30542 10.0105 2.35758 10.1318 2.44997 10.2201L3.05934 10.8022L2.44172 11.4218C2.26019 11.6039 2.25997 11.8954 2.44127 12.0778L3.05508 12.6952L2.45474 13.253C2.35945 13.3415 2.30542 13.4648 2.30542 13.5938V14.5938C2.30542 14.7182 2.35564 14.8373 2.44499 14.9252L3.39786 15.8627C3.48721 15.9507 3.60838 16.0001 3.73473 16.0001H5.32285C5.58597 16.0001 5.79929 15.7902 5.79929 15.5313V8.87002C6.74819 8.28173 7.33709 7.26301 7.35526 6.14686C7.39185 3.88748 5.12281 2.24625 2.9286 2.99172Z" fill="white"/>
</svg>
