<svg width="172" height="41" viewBox="0 0 172 41" fill="none" xmlns="http://www.w3.org/2000/svg">
<path d="M52.7144 37.0844V30.8585C52.7144 30.7672 52.7473 30.6872 52.8132 30.6187C52.879 30.5502 52.9597 30.5159 53.0552 30.5159C53.1507 30.5159 53.2314 30.5502 53.2973 30.6187C53.3664 30.6872 53.401 30.7672 53.401 30.8585V33.575H56.9232V30.8585C56.9232 30.7672 56.9562 30.6872 57.022 30.6187C57.0879 30.5502 57.1686 30.5159 57.2641 30.5159C57.3596 30.5159 57.4403 30.5502 57.5062 30.6187C57.5753 30.6872 57.6099 30.7672 57.6099 30.8585V37.0844C57.6099 37.1758 57.5753 37.2557 57.5062 37.3242C57.4403 37.3895 57.3596 37.4221 57.2641 37.4221C57.1686 37.4221 57.0879 37.3895 57.022 37.3242C56.9562 37.2557 56.9232 37.1758 56.9232 37.0844V34.1966H53.401V37.0844C53.401 37.1758 53.3664 37.2557 53.2973 37.3242C53.2314 37.3895 53.1507 37.4221 53.0552 37.4221C52.9597 37.4221 52.879 37.3895 52.8132 37.3242C52.7473 37.2557 52.7144 37.1758 52.7144 37.0844Z" fill="#999999"/>
<path d="M60.3981 33.9764C60.3981 32.8115 60.6731 31.9337 61.2231 31.3431C61.7764 30.7525 62.5536 30.4572 63.5548 30.4572C64.556 30.4572 65.3316 30.7525 65.8816 31.3431C66.4348 31.9337 66.7115 32.8115 66.7115 33.9764C66.7115 35.1315 66.4348 36.006 65.8816 36.5998C65.3316 37.1905 64.556 37.4858 63.5548 37.4858C62.5536 37.4858 61.7764 37.1905 61.2231 36.5998C60.6731 36.006 60.3981 35.1315 60.3981 33.9764ZM61.1046 33.9764C61.1046 34.9357 61.3153 35.6568 61.7369 36.1398C62.1617 36.6227 62.7677 36.8641 63.5548 36.8641C64.3419 36.8641 64.9462 36.6227 65.3678 36.1398C65.7926 35.6568 66.0051 34.9357 66.0051 33.9764C66.0051 33.0105 65.7926 32.2861 65.3678 31.8032C64.9462 31.3203 64.3419 31.0788 63.5548 31.0788C62.7677 31.0788 62.1617 31.3203 61.7369 31.8032C61.3153 32.2861 61.1046 33.0105 61.1046 33.9764Z" fill="#999999"/>
<path d="M69.4009 37.0942V30.8487C69.4009 30.7574 69.4338 30.6791 69.4997 30.6138C69.5656 30.5485 69.6446 30.5159 69.7368 30.5159C69.8718 30.5159 69.9723 30.5795 70.0382 30.7068L72.4884 35.2489L74.9485 30.7068C75.021 30.5795 75.1214 30.5159 75.2499 30.5159C75.3421 30.5159 75.4211 30.5485 75.487 30.6138C75.5529 30.6791 75.5858 30.7574 75.5858 30.8487V37.0942C75.5858 37.1856 75.5529 37.2639 75.487 37.3291C75.4211 37.3911 75.3421 37.4221 75.2499 37.4221C75.1577 37.4221 75.0786 37.3911 75.0128 37.3291C74.9502 37.2639 74.9189 37.1856 74.9189 37.0942V32.1605L72.7898 36.0614C72.7239 36.1887 72.6234 36.2523 72.4884 36.2523C72.3501 36.2523 72.2496 36.1887 72.1871 36.0614L70.0727 32.1605V37.0942C70.0727 37.1856 70.0398 37.2639 69.9739 37.3291C69.9081 37.3911 69.829 37.4221 69.7368 37.4221C69.6446 37.4221 69.5656 37.3911 69.4997 37.3291C69.4338 37.2639 69.4009 37.1856 69.4009 37.0942Z" fill="#999999"/>
<path d="M78.7396 37.0012V30.9368C78.7396 30.8422 78.7725 30.7623 78.8384 30.697C78.9043 30.6318 78.9849 30.5991 79.0805 30.5991H82.331C82.4166 30.5991 82.4891 30.6301 82.5483 30.6921C82.6109 30.7509 82.6422 30.8226 82.6422 30.9075C82.6422 30.9923 82.6109 31.0657 82.5483 31.1277C82.4891 31.1897 82.4166 31.2207 82.331 31.2207H79.4263V33.6337H81.6542C81.7398 33.6337 81.8123 33.6647 81.8716 33.7267C81.9341 33.7887 81.9654 33.8622 81.9654 33.947C81.9654 34.0318 81.9341 34.1053 81.8716 34.1673C81.8123 34.226 81.7398 34.2554 81.6542 34.2554H79.4263V36.7222H82.4397C82.5253 36.7222 82.5994 36.7532 82.662 36.8152C82.7245 36.8772 82.7558 36.9506 82.7558 37.0355C82.7558 37.1203 82.7245 37.1937 82.662 37.2557C82.5994 37.3144 82.5253 37.3438 82.4397 37.3438H79.0805C78.9849 37.3438 78.9043 37.3112 78.8384 37.2459C78.7725 37.1774 78.7396 37.0958 78.7396 37.0012Z" fill="#999999"/>
<path d="M89.4635 37.0844V30.8585C89.4635 30.7672 89.4965 30.6872 89.5623 30.6187C89.6282 30.5502 89.7089 30.5159 89.8044 30.5159C89.8999 30.5159 89.9806 30.5502 90.0465 30.6187C90.1156 30.6872 90.1502 30.7672 90.1502 30.8585V37.0844C90.1502 37.1758 90.1156 37.2557 90.0465 37.3242C89.9806 37.3895 89.8999 37.4221 89.8044 37.4221C89.7089 37.4221 89.6282 37.3895 89.5623 37.3242C89.4965 37.2557 89.4635 37.1758 89.4635 37.0844Z" fill="#999999"/>
<path d="M93.2002 37.0942V30.8487C93.2002 30.7574 93.2332 30.6791 93.299 30.6138C93.3649 30.5485 93.444 30.5159 93.5362 30.5159C93.6481 30.5159 93.7387 30.5632 93.8079 30.6579L97.3894 35.9929V30.8487C97.3894 30.7574 97.4223 30.6791 97.4882 30.6138C97.554 30.5485 97.6331 30.5159 97.7253 30.5159C97.8175 30.5159 97.8949 30.5485 97.9575 30.6138C98.0234 30.6791 98.0563 30.7574 98.0563 30.8487V37.0844C98.0563 37.179 98.0234 37.259 97.9575 37.3242C97.8916 37.3895 97.8109 37.4221 97.7154 37.4221C97.5969 37.4221 97.5014 37.3764 97.4289 37.2851L93.8721 31.9598V37.0942C93.8721 37.1856 93.8392 37.2639 93.7733 37.3291C93.7074 37.3911 93.6284 37.4221 93.5362 37.4221C93.444 37.4221 93.3649 37.3911 93.299 37.3291C93.2332 37.2639 93.2002 37.1856 93.2002 37.0942Z" fill="#999999"/>
<path d="M100.642 31.1473C100.579 31.0853 100.548 31.0086 100.548 30.9173C100.548 30.8259 100.579 30.7509 100.642 30.6921C100.705 30.6301 100.782 30.5991 100.874 30.5991H105.172C105.264 30.5991 105.342 30.6301 105.404 30.6921C105.467 30.7509 105.498 30.8259 105.498 30.9173C105.498 31.0086 105.467 31.0853 105.404 31.1473C105.342 31.2093 105.264 31.2403 105.172 31.2403H103.374V37.0844C103.374 37.179 103.339 37.259 103.27 37.3242C103.204 37.3895 103.124 37.4221 103.028 37.4221C102.932 37.4221 102.85 37.3895 102.781 37.3242C102.715 37.259 102.682 37.179 102.682 37.0844V31.2403H100.874C100.782 31.2403 100.705 31.2093 100.642 31.1473Z" fill="#999999"/>
<path d="M108.099 37.0012V30.9368C108.099 30.8422 108.131 30.7623 108.197 30.697C108.263 30.6318 108.344 30.5991 108.439 30.5991H111.69C111.776 30.5991 111.848 30.6301 111.907 30.6921C111.97 30.7509 112.001 30.8226 112.001 30.9075C112.001 30.9923 111.97 31.0657 111.907 31.1277C111.848 31.1897 111.776 31.2207 111.69 31.2207H108.785V33.6337H111.013C111.099 33.6337 111.171 33.6647 111.23 33.7267C111.293 33.7887 111.324 33.8622 111.324 33.947C111.324 34.0318 111.293 34.1053 111.23 34.1673C111.171 34.226 111.099 34.2554 111.013 34.2554H108.785V36.7222H111.799C111.884 36.7222 111.958 36.7532 112.021 36.8152C112.083 36.8772 112.115 36.9506 112.115 37.0355C112.115 37.1203 112.083 37.1937 112.021 37.2557C111.958 37.3144 111.884 37.3438 111.799 37.3438H108.439C108.344 37.3438 108.263 37.3112 108.197 37.2459C108.131 37.1774 108.099 37.0958 108.099 37.0012Z" fill="#999999"/>
<path d="M114.873 37.0012V30.8585C114.873 30.7639 114.906 30.684 114.972 30.6187C115.038 30.5502 115.119 30.5159 115.214 30.5159C115.31 30.5159 115.39 30.5502 115.456 30.6187C115.525 30.684 115.56 30.7639 115.56 30.8585V36.7026H118.331C118.424 36.7026 118.501 36.7336 118.564 36.7956C118.626 36.8544 118.657 36.9294 118.657 37.0208C118.657 37.1121 118.626 37.1888 118.564 37.2508C118.501 37.3128 118.424 37.3438 118.331 37.3438H115.214C115.119 37.3438 115.038 37.3112 114.972 37.2459C114.906 37.1774 114.873 37.0958 114.873 37.0012Z" fill="#999999"/>
<path d="M121.302 37.0012V30.8585C121.302 30.7639 121.335 30.684 121.401 30.6187C121.467 30.5502 121.548 30.5159 121.643 30.5159C121.739 30.5159 121.819 30.5502 121.885 30.6187C121.954 30.684 121.989 30.7639 121.989 30.8585V36.7026H124.76C124.853 36.7026 124.93 36.7336 124.993 36.7956C125.055 36.8544 125.086 36.9294 125.086 37.0208C125.086 37.1121 125.055 37.1888 124.993 37.2508C124.93 37.3128 124.853 37.3438 124.76 37.3438H121.643C121.548 37.3438 121.467 37.3112 121.401 37.2459C121.335 37.1774 121.302 37.0958 121.302 37.0012Z" fill="#999999"/>
<path d="M127.731 37.0844V30.8585C127.731 30.7672 127.764 30.6872 127.83 30.6187C127.896 30.5502 127.977 30.5159 128.072 30.5159C128.168 30.5159 128.248 30.5502 128.314 30.6187C128.383 30.6872 128.418 30.7672 128.418 30.8585V37.0844C128.418 37.1758 128.383 37.2557 128.314 37.3242C128.248 37.3895 128.168 37.4221 128.072 37.4221C127.977 37.4221 127.896 37.3895 127.83 37.3242C127.764 37.2557 127.731 37.1758 127.731 37.0844Z" fill="#999999"/>
<path d="M131.206 33.9764C131.206 32.8115 131.481 31.9337 132.031 31.3431C132.585 30.7525 133.362 30.4572 134.363 30.4572C134.84 30.4572 135.278 30.5518 135.677 30.7411C136.079 30.9303 136.4 31.1897 136.64 31.5193C136.686 31.5846 136.709 31.6547 136.709 31.7298C136.709 31.8211 136.678 31.8978 136.616 31.9598C136.556 32.0218 136.481 32.0528 136.388 32.0528C136.283 32.0528 136.194 32.0088 136.122 31.9207C135.94 31.6727 135.693 31.4704 135.381 31.3137C135.071 31.1571 134.732 31.0788 134.363 31.0788C133.573 31.0788 132.967 31.3203 132.545 31.8032C132.123 32.2861 131.913 33.0105 131.913 33.9764C131.913 34.9879 132.119 35.7221 132.53 36.1789C132.945 36.6357 133.556 36.8641 134.363 36.8641C134.798 36.8641 135.171 36.7891 135.484 36.639C135.8 36.4856 136.054 36.2931 136.245 36.0614V34.6078H134.556C134.47 34.6078 134.396 34.5768 134.333 34.5148C134.274 34.4528 134.244 34.3793 134.244 34.2945C134.244 34.2097 134.274 34.1379 134.333 34.0791C134.396 34.0172 134.47 33.9862 134.556 33.9862H136.601C136.683 33.9862 136.756 34.0172 136.818 34.0791C136.881 34.1379 136.912 34.2097 136.912 34.2945V36.0517C136.912 36.1626 136.869 36.2719 136.784 36.3796C136.497 36.7124 136.161 36.98 135.776 37.1823C135.394 37.3846 134.923 37.4858 134.363 37.4858C133.349 37.4858 132.568 37.2002 132.021 36.6292C131.478 36.0582 131.206 35.1739 131.206 33.9764Z" fill="#999999"/>
<path d="M139.819 37.0012V30.9368C139.819 30.8422 139.852 30.7623 139.918 30.697C139.983 30.6318 140.064 30.5991 140.16 30.5991H143.41C143.496 30.5991 143.568 30.6301 143.628 30.6921C143.69 30.7509 143.721 30.8226 143.721 30.9075C143.721 30.9923 143.69 31.0657 143.628 31.1277C143.568 31.1897 143.496 31.2207 143.41 31.2207H140.505V33.6337H142.733C142.819 33.6337 142.891 33.6647 142.951 33.7267C143.013 33.7887 143.045 33.8622 143.045 33.947C143.045 34.0318 143.013 34.1053 142.951 34.1673C142.891 34.226 142.819 34.2554 142.733 34.2554H140.505V36.7222H143.519C143.604 36.7222 143.679 36.7532 143.741 36.8152C143.804 36.8772 143.835 36.9506 143.835 37.0355C143.835 37.1203 143.804 37.1937 143.741 37.2557C143.679 37.3144 143.604 37.3438 143.519 37.3438H140.16C140.064 37.3438 139.983 37.3112 139.918 37.2459C139.852 37.1774 139.819 37.0958 139.819 37.0012Z" fill="#999999"/>
<path d="M146.49 37.0942V30.8487C146.49 30.7574 146.523 30.6791 146.589 30.6138C146.654 30.5485 146.734 30.5159 146.826 30.5159C146.938 30.5159 147.028 30.5632 147.097 30.6579L150.679 35.9929V30.8487C150.679 30.7574 150.712 30.6791 150.778 30.6138C150.844 30.5485 150.923 30.5159 151.015 30.5159C151.107 30.5159 151.184 30.5485 151.247 30.6138C151.313 30.6791 151.346 30.7574 151.346 30.8487V37.0844C151.346 37.179 151.313 37.259 151.247 37.3242C151.181 37.3895 151.101 37.4221 151.005 37.4221C150.886 37.4221 150.791 37.3764 150.718 37.2851L147.162 31.9598V37.0942C147.162 37.1856 147.129 37.2639 147.063 37.3291C146.997 37.3911 146.918 37.4221 146.826 37.4221C146.734 37.4221 146.654 37.3911 146.589 37.3291C146.523 37.2639 146.49 37.1856 146.49 37.0942Z" fill="#999999"/>
<path d="M154.04 33.9764C154.04 32.8115 154.315 31.9337 154.865 31.3431C155.418 30.7525 156.196 30.4572 157.197 30.4572C157.674 30.4572 158.112 30.5518 158.511 30.7411C158.913 30.9303 159.234 31.1897 159.474 31.5193C159.52 31.5846 159.543 31.6547 159.543 31.7298C159.543 31.8211 159.512 31.8978 159.45 31.9598C159.39 32.0218 159.315 32.0528 159.222 32.0528C159.117 32.0528 159.028 32.0088 158.956 31.9207C158.774 31.6727 158.527 31.4704 158.215 31.3137C157.902 31.1571 157.562 31.0788 157.197 31.0788C156.406 31.0788 155.801 31.3203 155.379 31.8032C154.957 32.2861 154.747 33.0105 154.747 33.9764C154.747 34.9879 154.952 35.7221 155.364 36.1789C155.779 36.6357 156.39 36.8641 157.197 36.8641C157.549 36.8641 157.882 36.7956 158.195 36.6586C158.511 36.5183 158.765 36.3127 158.956 36.0419C159.018 35.9538 159.107 35.9097 159.222 35.9097C159.315 35.9097 159.39 35.9407 159.45 36.0027C159.512 36.0647 159.543 36.1414 159.543 36.2328C159.543 36.3013 159.524 36.3649 159.484 36.4236C159.263 36.7434 158.942 37.0012 158.521 37.197C158.103 37.3895 157.661 37.4858 157.197 37.4858C156.183 37.4858 155.402 37.2002 154.855 36.6292C154.312 36.0582 154.04 35.1739 154.04 33.9764Z" fill="#999999"/>
<path d="M162.327 37.0012V30.9368C162.327 30.8422 162.36 30.7623 162.425 30.697C162.491 30.6318 162.572 30.5991 162.668 30.5991H165.918C166.004 30.5991 166.076 30.6301 166.135 30.6921C166.198 30.7509 166.229 30.8226 166.229 30.9075C166.229 30.9923 166.198 31.0657 166.135 31.1277C166.076 31.1897 166.004 31.2207 165.918 31.2207H163.013V33.6337H165.241C165.327 33.6337 165.399 33.6647 165.459 33.7267C165.521 33.7887 165.553 33.8622 165.553 33.947C165.553 34.0318 165.521 34.1053 165.459 34.1673C165.399 34.226 165.327 34.2554 165.241 34.2554H163.013V36.7222H166.027C166.112 36.7222 166.186 36.7532 166.249 36.8152C166.312 36.8772 166.343 36.9506 166.343 37.0355C166.343 37.1203 166.312 37.1937 166.249 37.2557C166.186 37.3144 166.112 37.3438 166.027 37.3438H162.668C162.572 37.3438 162.491 37.3112 162.425 37.2459C162.36 37.1774 162.327 37.0958 162.327 37.0012Z" fill="#999999"/>
<path d="M53.0637 25.771C52.8628 25.7761 52.6629 25.7403 52.4762 25.6659C52.2895 25.5915 52.12 25.4801 51.9778 25.3383C51.8357 25.1965 51.7239 25.0274 51.6493 24.8413C51.5747 24.6551 51.5389 24.4557 51.544 24.2553V6.20246C51.5365 6.00143 51.5708 5.80102 51.6445 5.61377C51.7182 5.42652 51.8299 5.25646 51.9726 5.11421C52.1152 4.97196 52.2857 4.86057 52.4735 4.78703C52.6612 4.71348 52.8621 4.67934 53.0637 4.68675C53.9308 4.68675 54.5212 5.30546 54.5212 6.20246V15.2599L64.9358 5.12146C65.06 4.98237 65.213 4.87171 65.3842 4.79708C65.5553 4.72245 65.7406 4.6856 65.9274 4.68905C66.6723 4.68905 67.3849 5.27556 67.3849 6.04836C67.3913 6.25147 67.3533 6.45354 67.2737 6.64058C67.194 6.82763 67.0746 6.99519 66.9237 7.13167L60.9669 12.9415L67.6939 23.5768C67.8508 23.8268 67.9369 24.1145 67.943 24.4094C67.9298 24.7663 67.7818 25.1051 67.5285 25.3577C67.2753 25.6102 66.9356 25.7579 66.5777 25.771C65.9274 25.771 65.5561 25.5548 65.2771 25.081L58.8614 14.9195L54.5212 19.1516V24.253C54.5306 24.4494 54.4998 24.6456 54.4307 24.8298C54.3616 25.014 54.2557 25.1822 54.1193 25.3242C53.983 25.4662 53.8191 25.579 53.6376 25.6559C53.4561 25.7327 53.2609 25.7719 53.0637 25.771Z" fill="#263A4A"/>
<path d="M74.9723 17.2311V6.19288C74.9645 5.99324 74.9987 5.79416 75.0727 5.60811C75.1468 5.42206 75.2592 5.25305 75.4028 5.11167C75.5464 4.97029 75.7182 4.85958 75.9073 4.78648C76.0965 4.71338 76.299 4.67945 76.5021 4.68684C77.3786 4.68684 77.9714 5.3016 77.9714 6.19288V17.5259C77.9714 20.8146 79.9406 23.0862 83.7534 23.0862C87.5662 23.0862 89.5401 20.8146 89.5401 17.5259V6.19288C89.5401 5.3016 90.1353 4.68684 91.0094 4.68684C91.2127 4.67913 91.4154 4.71281 91.6049 4.78577C91.7943 4.85873 91.9664 4.96939 92.1102 5.11081C92.2541 5.25222 92.3667 5.42134 92.4409 5.60755C92.5151 5.79376 92.5494 5.99304 92.5415 6.19288V17.2311C92.5415 22.4874 89.2611 25.7715 83.7604 25.7715C78.2597 25.7715 74.9723 22.4714 74.9723 17.2311Z" fill="#263A4A"/>
<path d="M102.264 25.771C102.063 25.7761 101.863 25.7403 101.676 25.6659C101.489 25.5915 101.32 25.4801 101.178 25.3383C101.035 25.1965 100.924 25.0274 100.849 24.8413C100.774 24.6551 100.739 24.4557 100.744 24.2553V6.20246C100.736 6.00143 100.77 5.80102 100.844 5.61377C100.918 5.42652 101.03 5.25646 101.172 5.11421C101.315 4.97196 101.486 4.86057 101.673 4.78703C101.861 4.71348 102.062 4.67934 102.264 4.68675C103.131 4.68675 103.719 5.30546 103.719 6.20246V15.2599L114.137 5.12146C114.262 4.98237 114.415 4.87171 114.586 4.79708C114.757 4.72245 114.942 4.6856 115.129 4.68905C115.874 4.68905 116.587 5.27556 116.587 6.04836C116.593 6.25141 116.555 6.45334 116.475 6.64031C116.395 6.82729 116.276 6.9949 116.126 7.13167L110.168 12.9415L116.894 23.5768C117.05 23.8268 117.137 24.1145 117.143 24.4094C117.13 24.7663 116.981 25.1051 116.728 25.3577C116.475 25.6102 116.135 25.7579 115.777 25.771C115.127 25.771 114.753 25.5548 114.476 25.081L108.06 14.9195L103.719 19.1516V24.253C103.729 24.4493 103.698 24.6455 103.629 24.8296C103.561 25.0138 103.455 25.182 103.319 25.3241C103.182 25.4661 103.019 25.579 102.837 25.6558C102.656 25.7327 102.461 25.7719 102.264 25.771Z" fill="#263A4A"/>
<path d="M124.172 17.2311V6.1928C124.165 5.99316 124.199 5.79408 124.273 5.60803C124.347 5.42198 124.46 5.25297 124.603 5.11159C124.747 4.97021 124.919 4.8595 125.108 4.78639C125.297 4.71329 125.5 4.67937 125.703 4.68675C126.58 4.68675 127.173 5.30151 127.173 6.1928V17.5259C127.173 20.8145 129.143 23.0862 132.958 23.0862C136.773 23.0862 138.741 20.8145 138.741 17.5259V6.1928C138.741 5.30151 139.337 4.68675 140.211 4.68675C140.414 4.67971 140.617 4.71387 140.806 4.78709C140.995 4.86031 141.167 4.97103 141.31 5.11235C141.454 5.25366 141.566 5.42253 141.641 5.60842C141.715 5.79432 141.749 5.99325 141.742 6.1928V17.2311C141.742 22.4874 138.46 25.7715 132.956 25.7715C127.452 25.7715 124.172 22.4714 124.172 17.2311Z" fill="#263A4A"/>
<path d="M166.06 25.7687C165.841 25.78 165.622 25.7378 165.423 25.6459C165.224 25.554 165.052 25.4152 164.922 25.2421L152.818 10.1588V24.3774C152.803 24.7405 152.645 25.0839 152.377 25.3356C152.109 25.5873 151.752 25.7279 151.381 25.7279C151.009 25.7279 150.652 25.5873 150.384 25.3356C150.116 25.0839 149.958 24.7405 149.943 24.3774V6.1092C149.943 5.21235 150.512 4.68803 151.429 4.68803C151.652 4.69056 151.872 4.74504 152.07 4.847C152.268 4.94896 152.438 5.09547 152.567 5.27444L164.638 20.3002V6.1092C164.626 5.91969 164.656 5.72998 164.725 5.55256C164.794 5.37514 164.901 5.21402 165.038 5.07978C165.175 4.94555 165.34 4.84125 165.521 4.77373C165.703 4.70621 165.897 4.677 166.091 4.68803C166.944 4.68803 167.513 5.24454 167.513 6.1092V24.3774C167.521 24.5648 167.489 24.7519 167.419 24.9264C167.348 25.1009 167.241 25.2589 167.104 25.3901C166.967 25.5214 166.803 25.6229 166.623 25.6881C166.443 25.7534 166.251 25.7808 166.06 25.7687Z" fill="#263A4A"/>
<path d="M17.2775 15.379C17.9774 16.0328 18.9261 16.4 19.9152 16.4C20.9044 16.4 21.8531 16.0328 22.553 15.379L33.8486 4.8134C33.8926 4.77229 33.9296 4.72903 33.9712 4.68576H30.7911L20.9571 13.8842C20.6756 14.1325 20.3033 14.2707 19.9164 14.2707C19.5295 14.2707 19.1572 14.1325 18.8756 13.8842L9.03702 4.68576H5.85693C5.89856 4.72903 5.93788 4.77229 5.98182 4.8134L17.2775 15.379Z" fill="#F05825"/>
<path d="M19.3286 10.5429C19.5705 10.544 19.8102 10.4955 20.0337 10.4C20.2572 10.3046 20.46 10.1642 20.6303 9.987L25.7715 4.68576H22.7473L19.3286 8.20862L15.9121 4.68576H12.8857L18.0269 9.987C18.1974 10.1639 18.4003 10.3041 18.6237 10.3995C18.8472 10.4949 19.0867 10.5436 19.3286 10.5429Z" fill="#F05825"/>
<path d="M18.0291 32.1834L12.8857 37.4858H15.9121L19.3286 33.9554L22.7473 37.4858H25.7715L20.6303 32.1834C20.2849 31.8281 19.8172 31.6286 19.3297 31.6286C18.8422 31.6286 18.3745 31.8281 18.0291 32.1834Z" fill="#F05825"/>
<path d="M22.5488 25.6219C21.8491 24.9676 20.9001 24.6001 19.9106 24.6001C18.9211 24.6001 17.9721 24.9676 17.2724 25.6219L5.98184 36.1867C5.93789 36.2278 5.89857 36.2711 5.85693 36.3143H9.0306L18.8685 27.1144C19.146 26.8587 19.5199 26.7153 19.9095 26.7153C20.299 26.7153 20.6729 26.8587 20.9504 27.1144L30.786 36.3143H33.9712C33.9296 36.2711 33.8926 36.2278 33.8486 36.1867L22.5488 25.6219Z" fill="#F05825"/>
<path d="M15.2777 23.7259C15.9963 23.025 16.3999 22.0756 16.3999 21.0858C16.3999 20.0959 15.9963 19.1465 15.2777 18.4456L3.65457 7.14667C3.60935 7.09574 3.55938 7.06796 3.51416 7.02861V10.1977L13.6332 20.0429C13.9146 20.3205 14.0723 20.6947 14.0723 21.0846C14.0723 21.4745 13.9146 21.8487 13.6332 22.1263L3.51416 31.9715V35.1429C3.55938 35.1035 3.60935 35.0734 3.65457 35.0318L15.2777 23.7259Z" fill="#F05825"/>
<path d="M9.37128 20.5C9.37225 20.2585 9.32359 20.0192 9.22815 19.796C9.1327 19.5729 8.99239 19.3705 8.8154 19.2005L3.51416 14.0572V17.0836L7.03702 20.5L3.51416 23.9187V26.9429L8.8154 21.8018C8.99256 21.6315 9.13296 21.4287 9.22841 21.2052C9.32385 20.9817 9.37242 20.742 9.37128 20.5Z" fill="#F05825"/>
<path d="M29.8396 21.8018L35.1428 26.9429V23.9187L31.6179 20.5L35.1428 17.0836V14.0572L29.8396 19.2005C29.4848 19.5459 29.2856 20.0136 29.2856 20.5011C29.2856 20.9887 29.4848 21.4563 29.8396 21.8018Z" fill="#F05825"/>
<path d="M24.4484 18.4492C23.7951 19.1494 23.4282 20.098 23.4282 21.0869C23.4282 22.0759 23.7951 23.0245 24.4484 23.7246L35.0149 35.0203C35.056 35.0643 35.0992 35.1013 35.1425 35.1429V31.9628L25.9412 22.1288C25.6854 21.8514 25.542 21.4776 25.542 21.0881C25.542 20.6986 25.6854 20.3247 25.9412 20.0473L35.1425 10.211V7.02861L35.0149 7.15119L24.4484 18.4492Z" fill="#F05825"/>
</svg>
